<mxfile host="app.diagrams.net" agent="Mozilla/5.0 (Windows NT 10.0; Win64; x64) AppleWebKit/537.36 (KHTML, like Gecko) Chrome/136.0.0.0 Safari/537.36 Edg/136.0.0.0" version="27.0.5">
  <diagram name="ページ1" id="8_Q9wC40AdxHY_8lKtXo">
    <mxGraphModel dx="1668" dy="934" grid="1" gridSize="10" guides="1" tooltips="1" connect="1" arrows="1" fold="1" page="1" pageScale="1" pageWidth="1169" pageHeight="827" math="0" shadow="0">
      <root>
        <mxCell id="0" />
        <mxCell id="1" parent="0" />
        <mxCell id="eQUanYn3twkdHNA9Sruw-1" value="AWS Cloud" style="points=[[0,0],[0.25,0],[0.5,0],[0.75,0],[1,0],[1,0.25],[1,0.5],[1,0.75],[1,1],[0.75,1],[0.5,1],[0.25,1],[0,1],[0,0.75],[0,0.5],[0,0.25]];outlineConnect=0;gradientColor=none;html=1;whiteSpace=wrap;fontSize=12;fontStyle=0;container=1;pointerEvents=0;collapsible=0;recursiveResize=0;shape=mxgraph.aws4.group;grIcon=mxgraph.aws4.group_aws_cloud;strokeColor=#232F3E;fillColor=none;verticalAlign=top;align=left;spacingLeft=30;fontColor=#232F3E;dashed=0;" vertex="1" parent="1">
          <mxGeometry x="220" y="120" width="880" height="400" as="geometry" />
        </mxCell>
        <mxCell id="eQUanYn3twkdHNA9Sruw-10" value="" style="rounded=0;whiteSpace=wrap;html=1;strokeColor=#ED7100;fillColor=none;" vertex="1" parent="eQUanYn3twkdHNA9Sruw-1">
          <mxGeometry x="740" y="40" width="100" height="160" as="geometry" />
        </mxCell>
        <mxCell id="eQUanYn3twkdHNA9Sruw-6" value="" style="sketch=0;points=[[0,0,0],[0.25,0,0],[0.5,0,0],[0.75,0,0],[1,0,0],[0,1,0],[0.25,1,0],[0.5,1,0],[0.75,1,0],[1,1,0],[0,0.25,0],[0,0.5,0],[0,0.75,0],[1,0.25,0],[1,0.5,0],[1,0.75,0]];outlineConnect=0;fontColor=#232F3E;fillColor=#ED7100;strokeColor=#ffffff;dashed=0;verticalLabelPosition=bottom;verticalAlign=top;align=center;html=1;fontSize=12;fontStyle=0;aspect=fixed;shape=mxgraph.aws4.resourceIcon;resIcon=mxgraph.aws4.ecr;" vertex="1" parent="eQUanYn3twkdHNA9Sruw-1">
          <mxGeometry x="740" y="40" width="25" height="25" as="geometry" />
        </mxCell>
        <mxCell id="eQUanYn3twkdHNA9Sruw-12" value="" style="sketch=0;outlineConnect=0;fontColor=#232F3E;gradientColor=none;fillColor=#ED7100;strokeColor=none;dashed=0;verticalLabelPosition=bottom;verticalAlign=top;align=center;html=1;fontSize=12;fontStyle=0;aspect=fixed;pointerEvents=1;shape=mxgraph.aws4.container_registry_image;" vertex="1" parent="eQUanYn3twkdHNA9Sruw-1">
          <mxGeometry x="780" y="102" width="30" height="30" as="geometry" />
        </mxCell>
        <mxCell id="eQUanYn3twkdHNA9Sruw-2" value="VPC" style="points=[[0,0],[0.25,0],[0.5,0],[0.75,0],[1,0],[1,0.25],[1,0.5],[1,0.75],[1,1],[0.75,1],[0.5,1],[0.25,1],[0,1],[0,0.75],[0,0.5],[0,0.25]];outlineConnect=0;gradientColor=none;html=1;whiteSpace=wrap;fontSize=12;fontStyle=0;container=1;pointerEvents=0;collapsible=0;recursiveResize=0;shape=mxgraph.aws4.group;grIcon=mxgraph.aws4.group_vpc2;strokeColor=#8C4FFF;fillColor=none;verticalAlign=top;align=left;spacingLeft=30;fontColor=#AAB7B8;dashed=0;" vertex="1" parent="eQUanYn3twkdHNA9Sruw-1">
          <mxGeometry x="180" y="40" width="520" height="320" as="geometry" />
        </mxCell>
        <mxCell id="eQUanYn3twkdHNA9Sruw-23" value="Availability Zone" style="fillColor=none;strokeColor=#147EBA;dashed=1;verticalAlign=top;fontStyle=0;fontColor=#147EBA;whiteSpace=wrap;html=1;" vertex="1" parent="eQUanYn3twkdHNA9Sruw-2">
          <mxGeometry x="40" y="40" width="200" height="260" as="geometry" />
        </mxCell>
        <mxCell id="eQUanYn3twkdHNA9Sruw-17" value="Private subnet" style="points=[[0,0],[0.25,0],[0.5,0],[0.75,0],[1,0],[1,0.25],[1,0.5],[1,0.75],[1,1],[0.75,1],[0.5,1],[0.25,1],[0,1],[0,0.75],[0,0.5],[0,0.25]];outlineConnect=0;gradientColor=none;html=1;whiteSpace=wrap;fontSize=12;fontStyle=0;container=1;pointerEvents=0;collapsible=0;recursiveResize=0;shape=mxgraph.aws4.group;grIcon=mxgraph.aws4.group_security_group;grStroke=0;strokeColor=#00A4A6;fillColor=#E6F6F7;verticalAlign=top;align=left;spacingLeft=30;fontColor=#147EBA;dashed=0;" vertex="1" parent="eQUanYn3twkdHNA9Sruw-2">
          <mxGeometry x="60" y="60" width="160" height="220" as="geometry" />
        </mxCell>
        <mxCell id="eQUanYn3twkdHNA9Sruw-22" value="" style="sketch=0;outlineConnect=0;fontColor=#232F3E;gradientColor=none;fillColor=#ED7100;strokeColor=none;dashed=0;verticalLabelPosition=bottom;verticalAlign=top;align=center;html=1;fontSize=12;fontStyle=0;aspect=fixed;pointerEvents=1;shape=mxgraph.aws4.container_1;" vertex="1" parent="eQUanYn3twkdHNA9Sruw-17">
          <mxGeometry x="86.51000000000002" y="129" width="30.97" height="20" as="geometry" />
        </mxCell>
        <mxCell id="eQUanYn3twkdHNA9Sruw-20" value="" style="rounded=0;whiteSpace=wrap;html=1;strokeColor=#ED7100;fillColor=none;" vertex="1" parent="eQUanYn3twkdHNA9Sruw-17">
          <mxGeometry x="60" y="100" width="80" height="80" as="geometry" />
        </mxCell>
        <mxCell id="eQUanYn3twkdHNA9Sruw-21" value="" style="sketch=0;outlineConnect=0;fontColor=#232F3E;gradientColor=none;fillColor=#ED7100;strokeColor=none;dashed=0;verticalLabelPosition=bottom;verticalAlign=top;align=center;html=1;fontSize=12;fontStyle=0;aspect=fixed;pointerEvents=1;shape=mxgraph.aws4.ecs_task;" vertex="1" parent="eQUanYn3twkdHNA9Sruw-17">
          <mxGeometry x="59.999999999999986" y="100" width="19.28" height="25" as="geometry" />
        </mxCell>
        <mxCell id="eQUanYn3twkdHNA9Sruw-16" value="" style="sketch=0;points=[[0,0,0],[0.25,0,0],[0.5,0,0],[0.75,0,0],[1,0,0],[0,1,0],[0.25,1,0],[0.5,1,0],[0.75,1,0],[1,1,0],[0,0.25,0],[0,0.5,0],[0,0.75,0],[1,0.25,0],[1,0.5,0],[1,0.75,0]];outlineConnect=0;fontColor=#232F3E;fillColor=#ED7100;strokeColor=#ffffff;dashed=0;verticalLabelPosition=bottom;verticalAlign=top;align=center;html=1;fontSize=12;fontStyle=0;aspect=fixed;shape=mxgraph.aws4.resourceIcon;resIcon=mxgraph.aws4.ecs;" vertex="1" parent="eQUanYn3twkdHNA9Sruw-2">
          <mxGeometry x="248" y="139" width="25" height="25" as="geometry" />
        </mxCell>
        <mxCell id="eQUanYn3twkdHNA9Sruw-18" value="" style="sketch=0;outlineConnect=0;fontColor=#232F3E;gradientColor=none;fillColor=#ED7100;strokeColor=none;dashed=0;verticalLabelPosition=bottom;verticalAlign=top;align=center;html=1;fontSize=12;fontStyle=0;aspect=fixed;pointerEvents=1;shape=mxgraph.aws4.ecs_service;" vertex="1" parent="eQUanYn3twkdHNA9Sruw-2">
          <mxGeometry x="78.9" y="140" width="24.38" height="30" as="geometry" />
        </mxCell>
        <mxCell id="eQUanYn3twkdHNA9Sruw-33" value="Availability Zone" style="fillColor=none;strokeColor=#147EBA;dashed=1;verticalAlign=top;fontStyle=0;fontColor=#147EBA;whiteSpace=wrap;html=1;" vertex="1" parent="eQUanYn3twkdHNA9Sruw-2">
          <mxGeometry x="280" y="40" width="200" height="260" as="geometry" />
        </mxCell>
        <mxCell id="eQUanYn3twkdHNA9Sruw-34" value="Private subnet" style="points=[[0,0],[0.25,0],[0.5,0],[0.75,0],[1,0],[1,0.25],[1,0.5],[1,0.75],[1,1],[0.75,1],[0.5,1],[0.25,1],[0,1],[0,0.75],[0,0.5],[0,0.25]];outlineConnect=0;gradientColor=none;html=1;whiteSpace=wrap;fontSize=12;fontStyle=0;container=1;pointerEvents=0;collapsible=0;recursiveResize=0;shape=mxgraph.aws4.group;grIcon=mxgraph.aws4.group_security_group;grStroke=0;strokeColor=#00A4A6;fillColor=#E6F6F7;verticalAlign=top;align=left;spacingLeft=30;fontColor=#147EBA;dashed=0;" vertex="1" parent="eQUanYn3twkdHNA9Sruw-2">
          <mxGeometry x="300" y="60" width="160" height="220" as="geometry" />
        </mxCell>
        <mxCell id="eQUanYn3twkdHNA9Sruw-35" value="" style="sketch=0;outlineConnect=0;fontColor=#232F3E;gradientColor=none;fillColor=#ED7100;strokeColor=none;dashed=0;verticalLabelPosition=bottom;verticalAlign=top;align=center;html=1;fontSize=12;fontStyle=0;aspect=fixed;pointerEvents=1;shape=mxgraph.aws4.container_1;" vertex="1" parent="eQUanYn3twkdHNA9Sruw-34">
          <mxGeometry x="67.50999999999999" y="128" width="30.97" height="20" as="geometry" />
        </mxCell>
        <mxCell id="eQUanYn3twkdHNA9Sruw-36" value="" style="rounded=0;whiteSpace=wrap;html=1;strokeColor=#ED7100;fillColor=none;" vertex="1" parent="eQUanYn3twkdHNA9Sruw-34">
          <mxGeometry x="41" y="99" width="80" height="80" as="geometry" />
        </mxCell>
        <mxCell id="eQUanYn3twkdHNA9Sruw-37" value="" style="sketch=0;outlineConnect=0;fontColor=#232F3E;gradientColor=none;fillColor=#ED7100;strokeColor=none;dashed=0;verticalLabelPosition=bottom;verticalAlign=top;align=center;html=1;fontSize=12;fontStyle=0;aspect=fixed;pointerEvents=1;shape=mxgraph.aws4.ecs_task;" vertex="1" parent="eQUanYn3twkdHNA9Sruw-34">
          <mxGeometry x="41" y="99" width="19.28" height="25" as="geometry" />
        </mxCell>
        <mxCell id="eQUanYn3twkdHNA9Sruw-32" value="" style="rounded=0;whiteSpace=wrap;html=1;strokeColor=#ED7100;fillColor=none;dashed=1;" vertex="1" parent="eQUanYn3twkdHNA9Sruw-34">
          <mxGeometry x="-220" y="79" width="361" height="120" as="geometry" />
        </mxCell>
        <mxCell id="eQUanYn3twkdHNA9Sruw-39" value="" style="sketch=0;outlineConnect=0;fontColor=#232F3E;gradientColor=none;fillColor=#8C4FFF;strokeColor=none;dashed=0;verticalLabelPosition=bottom;verticalAlign=top;align=center;html=1;fontSize=12;fontStyle=0;aspect=fixed;pointerEvents=1;shape=mxgraph.aws4.endpoints;" vertex="1" parent="eQUanYn3twkdHNA9Sruw-2">
          <mxGeometry x="410" y="92" width="25" height="25" as="geometry" />
        </mxCell>
        <mxCell id="eQUanYn3twkdHNA9Sruw-44" value="" style="sketch=0;outlineConnect=0;fontColor=#232F3E;gradientColor=none;fillColor=#8C4FFF;strokeColor=none;dashed=0;verticalLabelPosition=bottom;verticalAlign=top;align=center;html=1;fontSize=12;fontStyle=0;aspect=fixed;pointerEvents=1;shape=mxgraph.aws4.endpoints;" vertex="1" parent="eQUanYn3twkdHNA9Sruw-2">
          <mxGeometry x="86" y="93" width="25" height="25" as="geometry" />
        </mxCell>
        <mxCell id="eQUanYn3twkdHNA9Sruw-41" value="" style="edgeStyle=orthogonalEdgeStyle;html=1;endArrow=block;elbow=vertical;startArrow=none;endFill=1;strokeColor=#545B64;rounded=0;exitX=0;exitY=0.75;exitDx=0;exitDy=0;entryX=0.5;entryY=0;entryDx=0;entryDy=0;" edge="1" parent="eQUanYn3twkdHNA9Sruw-1" source="eQUanYn3twkdHNA9Sruw-10" target="eQUanYn3twkdHNA9Sruw-32">
          <mxGeometry width="100" relative="1" as="geometry">
            <mxPoint x="450" y="280" as="sourcePoint" />
            <mxPoint x="550" y="280" as="targetPoint" />
            <Array as="points">
              <mxPoint x="440" y="145" />
            </Array>
          </mxGeometry>
        </mxCell>
        <mxCell id="eQUanYn3twkdHNA9Sruw-42" value="" style="sketch=0;points=[[0,0,0],[0.25,0,0],[0.5,0,0],[0.75,0,0],[1,0,0],[0,1,0],[0.25,1,0],[0.5,1,0],[0.75,1,0],[1,1,0],[0,0.25,0],[0,0.5,0],[0,0.75,0],[1,0.25,0],[1,0.5,0],[1,0.75,0]];points=[[0,0,0],[0.25,0,0],[0.5,0,0],[0.75,0,0],[1,0,0],[0,1,0],[0.25,1,0],[0.5,1,0],[0.75,1,0],[1,1,0],[0,0.25,0],[0,0.5,0],[0,0.75,0],[1,0.25,0],[1,0.5,0],[1,0.75,0]];outlineConnect=0;fontColor=#232F3E;fillColor=#E7157B;strokeColor=#ffffff;dashed=0;verticalLabelPosition=bottom;verticalAlign=top;align=center;html=1;fontSize=12;fontStyle=0;aspect=fixed;shape=mxgraph.aws4.resourceIcon;resIcon=mxgraph.aws4.systems_manager;" vertex="1" parent="eQUanYn3twkdHNA9Sruw-1">
          <mxGeometry x="40" y="40" width="25" height="25" as="geometry" />
        </mxCell>
        <mxCell id="eQUanYn3twkdHNA9Sruw-43" value="" style="rounded=0;whiteSpace=wrap;html=1;strokeColor=light-dark(#e3167a, #d86d0c);fillColor=none;" vertex="1" parent="eQUanYn3twkdHNA9Sruw-1">
          <mxGeometry x="40" y="40" width="100" height="160" as="geometry" />
        </mxCell>
        <mxCell id="eQUanYn3twkdHNA9Sruw-46" value="" style="sketch=0;outlineConnect=0;fontColor=#232F3E;gradientColor=none;fillColor=#E7157B;strokeColor=none;dashed=0;verticalLabelPosition=bottom;verticalAlign=top;align=center;html=1;fontSize=12;fontStyle=0;aspect=fixed;pointerEvents=1;shape=mxgraph.aws4.systems_manager_session_manager;" vertex="1" parent="eQUanYn3twkdHNA9Sruw-1">
          <mxGeometry x="75" y="102" width="30" height="30" as="geometry" />
        </mxCell>
        <mxCell id="eQUanYn3twkdHNA9Sruw-47" value="" style="sketch=0;outlineConnect=0;fontColor=#232F3E;gradientColor=none;fillColor=#232F3D;strokeColor=none;dashed=0;verticalLabelPosition=bottom;verticalAlign=top;align=center;html=1;fontSize=12;fontStyle=0;aspect=fixed;pointerEvents=1;shape=mxgraph.aws4.client;" vertex="1" parent="1">
          <mxGeometry x="70" y="247" width="41.05" height="40" as="geometry" />
        </mxCell>
        <mxCell id="eQUanYn3twkdHNA9Sruw-45" value="" style="edgeStyle=orthogonalEdgeStyle;html=1;endArrow=block;elbow=vertical;startArrow=none;endFill=1;strokeColor=#545B64;rounded=0;entryX=0.23;entryY=0.425;entryDx=0;entryDy=0;entryPerimeter=0;" edge="1" parent="1" source="eQUanYn3twkdHNA9Sruw-47" target="eQUanYn3twkdHNA9Sruw-32">
          <mxGeometry width="100" relative="1" as="geometry">
            <mxPoint x="213" y="380" as="sourcePoint" />
            <mxPoint x="623.1419999999999" y="350" as="targetPoint" />
            <Array as="points">
              <mxPoint x="563" y="266" />
            </Array>
          </mxGeometry>
        </mxCell>
      </root>
    </mxGraphModel>
  </diagram>
</mxfile>
